<svg xmlns="http://www.w3.org/2000/svg" viewBox="0 0 100 100">
  <rect width="100" height="100" rx="20" fill="#f5f5f5"/>
  <path d="M50 20C40 20 30 30 30 45C30 55 35 60 40 65L40 75C40 75 45 75 50 75C55 75 60 75 60 75L60 65C65 60 70 55 70 45C70 30 60 20 50 20Z" stroke="#333" stroke-width="4" fill="none"/>
  <path d="M40 75L60 75" stroke="#333" stroke-width="4"/>
  <path d="M42 82L58 82" stroke="#333" stroke-width="4"/>
  <path d="M45 40L55 40M45 50L55 50" stroke="#333" stroke-width="4"/>
  <path d="M45 30L45 60M55 30L55 60" stroke="#333" stroke-width="4"/>
</svg>
